<svg width="24" height="24" viewBox="0 0 24 24" fill="none" xmlns="http://www.w3.org/2000/svg">
<path d="M12.0001 13.85L7.3251 18.525C7.0751 18.775 6.76676 18.9 6.4001 18.9C6.03343 18.9 5.7251 18.775 5.4751 18.525C5.2251 18.275 5.1001 17.9666 5.1001 17.6C5.1001 17.2333 5.2251 16.925 5.4751 16.675L10.1501 12L5.4751 7.32498C5.2251 7.07498 5.1001 6.76664 5.1001 6.39998C5.1001 6.03331 5.2251 5.72498 5.4751 5.47498C5.7251 5.22498 6.03343 5.09998 6.4001 5.09998C6.76676 5.09998 7.0751 5.22498 7.3251 5.47498L12.0001 10.15L16.6751 5.47498C16.9251 5.22498 17.2334 5.09998 17.6001 5.09998C17.9668 5.09998 18.2751 5.22498 18.5251 5.47498C18.7751 5.72498 18.9001 6.03331 18.9001 6.39998C18.9001 6.76664 18.7751 7.07498 18.5251 7.32498L13.8501 12L18.5251 16.675C18.7751 16.925 18.9001 17.2333 18.9001 17.6C18.9001 17.9666 18.7751 18.275 18.5251 18.525C18.2751 18.775 17.9668 18.9 17.6001 18.9C17.2334 18.9 16.9251 18.775 16.6751 18.525L12.0001 13.85Z" fill="#0078FF"/>
</svg>
