<svg width="24" height="24" viewBox="0 0 24 24" fill="none" xmlns="http://www.w3.org/2000/svg">
<path d="M3.9998 18.525C3.63314 18.525 3.32047 18.4 3.0618 18.15C2.8038 17.9 2.6748 17.5833 2.6748 17.2C2.6748 16.8333 2.8038 16.5206 3.0618 16.262C3.32047 16.004 3.63314 15.875 3.9998 15.875H19.9998C20.3665 15.875 20.6791 16.004 20.9378 16.262C21.1958 16.5206 21.3248 16.8333 21.3248 17.2C21.3248 17.5833 21.1958 17.9 20.9378 18.15C20.6791 18.4 20.3665 18.525 19.9998 18.525H3.9998ZM3.9998 13.325C3.63314 13.325 3.32047 13.196 3.0618 12.938C2.8038 12.6793 2.6748 12.3666 2.6748 12C2.6748 11.6333 2.8038 11.3206 3.0618 11.062C3.32047 10.804 3.63314 10.675 3.9998 10.675H19.9998C20.3665 10.675 20.6791 10.804 20.9378 11.062C21.1958 11.3206 21.3248 11.6333 21.3248 12C21.3248 12.3666 21.1958 12.6793 20.9378 12.938C20.6791 13.196 20.3665 13.325 19.9998 13.325H3.9998ZM3.9998 8.12498C3.63314 8.12498 3.32047 7.99564 3.0618 7.73698C2.8038 7.47898 2.6748 7.16664 2.6748 6.79998C2.6748 6.41664 2.8038 6.09998 3.0618 5.84998C3.32047 5.59998 3.63314 5.47498 3.9998 5.47498H19.9998C20.3665 5.47498 20.6791 5.59998 20.9378 5.84998C21.1958 6.09998 21.3248 6.41664 21.3248 6.79998C21.3248 7.16664 21.1958 7.47898 20.9378 7.73698C20.6791 7.99564 20.3665 8.12498 19.9998 8.12498H3.9998Z" fill="#0078FF"/>
</svg>
